<svg xmlns="http://www.w3.org/2000/svg" xmlns:xlink="http://www.w3.org/1999/xlink" width="51" height="51" viewBox="0 0 51 51">
  <defs>
    <clipPath id="clip-path">
      <rect id="Rectangle_1247" data-name="Rectangle 1247" width="51" height="51" transform="translate(98 7191)" fill="#c8102e" stroke="#707070" stroke-width="1"/>
    </clipPath>
  </defs>
  <g id="Mask_Group_121" data-name="Mask Group 121" transform="translate(-98 -7191)" clip-path="url(#clip-path)">
    <g id="download_9_" data-name="download (9)" transform="translate(98 7191)">
      <g id="Group_13705" data-name="Group 13705">
        <path id="Path_356" data-name="Path 356" d="M49.482,35.08a1.492,1.492,0,0,0,1.411-1.49,7.681,7.681,0,0,0-7.857-7.668H41.58L39.8,17.476a4.849,4.849,0,0,0-1.921-9.3H30.994A1.493,1.493,0,0,0,29.5,9.671v1.861H25.833a1.494,1.494,0,0,0,0,2.988H29.5V16.38a1.493,1.493,0,0,0,1.492,1.494h.663a8.351,8.351,0,0,0-1.983,5.409v8.5a.079.079,0,0,1-.079.079H23.567a.079.079,0,0,1-.076-.057l-1.625-5.5a3.077,3.077,0,0,0,2.278-2.968,6.119,6.119,0,0,0-6.109-6.116H4.589a4.594,4.594,0,0,0-.64,9.143A11.533,11.533,0,0,0,.094,34.979V39.63a1.493,1.493,0,0,0,1.492,1.494H2.878a7.576,7.576,0,0,0,14.859,0H35.993a7.578,7.578,0,1,0,13.49-6.044ZM47.664,32.1H44.3a7.491,7.491,0,0,0-2.442.109V28.911h1.174A4.8,4.8,0,0,1,47.664,32.1ZM32.486,11.165h5.392a1.861,1.861,0,0,1,0,3.721H32.486Zm-8.92,23.688h6.028a3.069,3.069,0,0,0,3.063-3.067v-8.5a5.4,5.4,0,0,1,4.206-5.264l2.013,9.554v5.991a7.6,7.6,0,0,0-2.884,4.573H21.156a10.65,10.65,0,0,0-10.649-9.372,10.234,10.234,0,0,0-6.421,2.188,8.56,8.56,0,0,1,7.548-4.539h7.151l1.845,6.243a3.081,3.081,0,0,0,2.937,2.2ZM3.2,38.136A7.88,7.88,0,0,1,5.178,34a7.192,7.192,0,0,1,5.328-2.249,7.691,7.691,0,0,1,7.626,6.383H3.2ZM4.589,23.425a1.606,1.606,0,0,1,0-3.212H18.035a3.129,3.129,0,0,1,3.124,3.128c-.013.061-.111.1-.294.084H4.589Zm5.719,20.8a4.6,4.6,0,0,1-4.343-3.1h8.686A4.6,4.6,0,0,1,10.307,44.229Zm33.115,0a4.6,4.6,0,1,1,4.593-4.6A4.6,4.6,0,0,1,43.422,44.229Z" fill="#c8102e"/>
        <ellipse id="Ellipse_28" data-name="Ellipse 28" cx="1.502" cy="1.504" rx="1.502" ry="1.504" transform="translate(41.92 38.126)" fill="#c8102e"/>
        <path id="Path_357" data-name="Path 357" d="M1.555,12.894H14.939a1.494,1.494,0,0,0,0-2.988H1.555a1.494,1.494,0,0,0,0,2.988Z" fill="#c8102e"/>
        <path id="Path_358" data-name="Path 358" d="M6.513,6.771h13.5a1.494,1.494,0,0,0,0-2.988H6.513a1.494,1.494,0,0,0,0,2.988Z" fill="#c8102e"/>
      </g>
    </g>
  </g>
</svg>
