<svg xmlns="http://www.w3.org/2000/svg" xmlns:xlink="http://www.w3.org/1999/xlink" width="51" height="51" viewBox="0 0 51 51">
  <defs>
    <clipPath id="clip-path">
      <rect id="Rectangle_1632" data-name="Rectangle 1632" width="51" height="51" transform="translate(698 7191)" fill="#c8102e" stroke="#707070" stroke-width="1"/>
    </clipPath>
  </defs>
  <g id="Mask_Group_123" data-name="Mask Group 123" transform="translate(-698 -7191)" clip-path="url(#clip-path)">
    <g id="download_11_" data-name="download (11)" transform="translate(698 7191)">
      <g id="Group_13707" data-name="Group 13707">
        <path id="Path_362" data-name="Path 362" d="M40.433,18.093A56.351,56.351,0,0,1,32.145,6.427,26.858,26.858,0,0,1,30.136,1.7L29.687,0,28.081.716a16.044,16.044,0,0,0-7.109,7.078,16.183,16.183,0,0,0-1.487,7.165A2.307,2.307,0,0,1,15.548,16.6L12.557,13.61l-1.029,1.419c-.107.147-2.621,3.615-3.079,4.307A20.422,20.422,0,1,0,45.921,30.579C45.921,26.5,43.921,21.945,40.433,18.093ZM25.5,48.009A17.433,17.433,0,0,1,10.945,20.985c.233-.352,1.167-1.655,1.977-2.779l.51.51a5.3,5.3,0,0,0,9.043-3.773,13.211,13.211,0,0,1,1.171-5.811A13.2,13.2,0,0,1,27.878,4.3C29,7.163,31.854,13.074,38.216,20.1c1.417,1.565,4.714,5.72,4.714,10.478A17.45,17.45,0,0,1,25.5,48.009Z" fill="#c8102e"/>
        <path id="Path_363" data-name="Path 363" d="M28.531,25.373,19.154,39.106h3.315l9.378-13.733Z" fill="#c8102e"/>
        <path id="Path_364" data-name="Path 364" d="M30.532,31.651a3.519,3.519,0,0,0-3.649,3.826A3.509,3.509,0,0,0,30.532,39.3a3.509,3.509,0,0,0,3.649-3.825A3.519,3.519,0,0,0,30.532,31.651Zm0,5.532c-.432,0-.863-.392-.863-1.707s.432-1.707.863-1.707.863.392.863,1.707S30.964,37.183,30.532,37.183Z" fill="#c8102e"/>
        <path id="Path_365" data-name="Path 365" d="M24.117,29a3.519,3.519,0,0,0-3.649-3.825A3.519,3.519,0,0,0,16.819,29a3.509,3.509,0,0,0,3.649,3.826A3.509,3.509,0,0,0,24.117,29ZM19.6,29c0-1.314.432-1.707.863-1.707s.863.392.863,1.707-.432,1.707-.863,1.707S19.6,30.317,19.6,29Z" fill="#c8102e"/>
      </g>
    </g>
  </g>
</svg>
