<svg xmlns="http://www.w3.org/2000/svg" xmlns:xlink="http://www.w3.org/1999/xlink" width="14" height="14" viewBox="0 0 14 14">
  <defs>
    <clipPath id="clip-path">
      <rect id="Rectangle_14" data-name="Rectangle 14" width="14" height="14" transform="translate(118 203)" fill="#c8102e" stroke="#707070" stroke-width="1"/>
    </clipPath>
  </defs>
  <g id="Mask_Group_112" data-name="Mask Group 112" transform="translate(-118 -203)" clip-path="url(#clip-path)">
    <g id="download_7_" data-name="download (7)" transform="translate(117.143 202.263)">
      <g id="Glyph">
        <path id="Path_316" data-name="Path 316" d="M1.935,5.761A19.57,19.57,0,0,0,3.5,7.86h.425a6.323,6.323,0,0,0-.228-.9A6.678,6.678,0,0,0,1.8,4.112l.33-.364A7.16,7.16,0,0,1,4.163,6.8c.065.193.118.392.166.592.022-.04.045-.08.064-.123.553-1.228.284-3.184-.891-3.862A2.348,2.348,0,0,0,1.66,3.273a1.032,1.032,0,0,0-.65.5c-.13.329.228.908.925,1.987Z" fill="#c8102e"/>
        <path id="Path_317" data-name="Path 317" d="M7.6,5.472a1.791,1.791,0,0,0-.11-.433,2.064,2.064,0,0,0-2.17-1.314,1.067,1.067,0,0,0-.54.409,4.175,4.175,0,0,1,.143,3.131c.014-.017.031-.032.044-.049A4.568,4.568,0,0,0,5.9,4.886l.488.054A5.031,5.031,0,0,1,5.351,7.521c-.094.118-.2.23-.3.339H6.182l.02-.01A1.955,1.955,0,0,1,7.6,5.473Z" fill="#c8102e"/>
        <path id="Path_318" data-name="Path 318" d="M12.084,7.86h2.46a1.417,1.417,0,0,0-.63-.507,1.8,1.8,0,0,0-.516-.093c-.225-.017-.481-.036-.6-.272s.045-.457.18-.625a1.291,1.291,0,0,0,.292-.522c.121-.529.123-1.418-.372-1.7a.963.963,0,0,0-.75-.053,1.523,1.523,0,0,0-.876.689A1.6,1.6,0,0,0,11.3,5.956c.108.4.221.813-.077,1.1s-.744.172-1.172.055a1.852,1.852,0,0,1-.046.75h1.579c.061-.348.131-.7.211-1.039.138-.586.305-1.172.5-1.742l.465.157c-.188.555-.351,1.126-.485,1.7-.072.306-.134.616-.19.926Z" fill="#c8102e"/>
        <path id="Path_319" data-name="Path 319" d="M9.494,7.86a1.431,1.431,0,0,0,.08-.394L9.165,7.6,9.01,7.135l.511-.17A1.476,1.476,0,0,0,8.351,5.917v.469H7.86V5.917a1.476,1.476,0,0,0-1.089.83L7.2,6.89l-.155.467-.406-.136q-.007.073-.008.147a1.446,1.446,0,0,0,.085.491ZM7.86,6.877h.491v.491H7.86Z" fill="#c8102e"/>
        <path id="Path_320" data-name="Path 320" d="M2.862,7.86q-.412-.5-.794-1.036a3.926,3.926,0,0,0-.649.283.777.777,0,0,0-.387.368.67.67,0,0,0-.038.384Z" fill="#c8102e"/>
        <path id="Path_321" data-name="Path 321" d="M.987,8.351a6.639,6.639,0,0,0,6.627,6.386h.491a6.639,6.639,0,0,0,6.627-6.386Zm4.064,5.133a6.67,6.67,0,0,1-2.8-2.55l.42-.255a6.183,6.183,0,0,0,2.6,2.363Zm1.089.27H5.649v-.491H6.14Z" fill="#c8102e"/>
        <path id="Path_322" data-name="Path 322" d="M11.544,1.965V1.474h-.982A1.965,1.965,0,0,0,8.6,3.439V3.93h.982a1.965,1.965,0,0,0,1.965-1.965Z" fill="#c8102e"/>
        <circle id="Ellipse_23" data-name="Ellipse 23" cx="0.491" cy="0.491" r="0.491" transform="translate(6.386 1.474)" fill="#c8102e"/>
        <circle id="Ellipse_24" data-name="Ellipse 24" cx="0.491" cy="0.491" r="0.491" transform="translate(3.193 0.737)" fill="#c8102e"/>
      </g>
    </g>
  </g>
</svg>
