<svg xmlns="http://www.w3.org/2000/svg" xmlns:xlink="http://www.w3.org/1999/xlink" width="51" height="51" viewBox="0 0 51 51">
  <defs>
    <clipPath id="clip-path">
      <rect id="Rectangle_1248" data-name="Rectangle 1248" width="51" height="51" transform="translate(398 7191)" fill="#c8102e" stroke="#707070" stroke-width="1"/>
    </clipPath>
  </defs>
  <g id="Mask_Group_122" data-name="Mask Group 122" transform="translate(-398 -7191)" clip-path="url(#clip-path)">
    <g id="download_10_" data-name="download (10)" transform="translate(398 7191)">
      <g id="Group_13706" data-name="Group 13706">
        <path id="Path_359" data-name="Path 359" d="M30.422,12.516,33.916,15.1a.521.521,0,0,1-.3.938l-1.1.007h0a.515.515,0,0,1-.514-.51,1.494,1.494,0,0,0-2.988.018A3.508,3.508,0,0,0,31.563,18.9v.072a1.494,1.494,0,1,0,2.988,0V18.9a3.5,3.5,0,0,0,2.561-3.4V15.49A3.519,3.519,0,0,0,35.693,12.7L32.2,10.113a.514.514,0,0,1,.306-.926h1.1a.515.515,0,0,1,.514.514,1.494,1.494,0,1,0,2.988,0,3.508,3.508,0,0,0-2.554-3.37V6.258a1.494,1.494,0,1,0-2.988,0v.07a3.5,3.5,0,0,0-1.142,6.187Z" fill="#c8102e"/>
        <path id="Path_360" data-name="Path 360" d="M33.057,25.233a12.616,12.616,0,1,0-12.62-12.616A12.632,12.632,0,0,0,33.057,25.233Zm0-22.244a9.628,9.628,0,1,1-9.631,9.628A9.641,9.641,0,0,1,33.057,2.988Z" fill="#c8102e"/>
        <path id="Path_361" data-name="Path 361" d="M49.972,28.606a4.874,4.874,0,0,0-6.633-1.015l-5.685,3.8a4.685,4.685,0,0,0-4.127-2.474H29.472A11.1,11.1,0,0,0,12.11,31.728l-.761.465-.2-.577a1.494,1.494,0,0,0-1.9-.931L1.011,33.5a1.5,1.5,0,0,0-.931,1.9L5.068,49.989a1.494,1.494,0,0,0,1.9.931L15.209,48.1a1.5,1.5,0,0,0,.914-1.946l13.081-.4a16.986,16.986,0,0,0,9.88-3.164l9.865-7.017a4.873,4.873,0,0,0,1.024-6.965Zm-42.56,19L3.392,35.847,8.807,34l4.021,11.761Zm39.8-14.472-9.865,7.017a14.015,14.015,0,0,1-8.172,2.611h-.046L15.111,43.2,12.339,35.09l1.685-1.03h0a1.509,1.509,0,0,0,.56-.616,8.115,8.115,0,0,1,13.186-2,1.519,1.519,0,0,0,1.086.468h4.67a1.692,1.692,0,1,1,0,3.384H25.1a1.494,1.494,0,0,0,0,2.988h8.43a4.685,4.685,0,0,0,4.55-3.575l6.935-4.64.025-.017a1.889,1.889,0,0,1,2.179,3.086Z" fill="#c8102e"/>
      </g>
    </g>
  </g>
</svg>
