<svg xmlns="http://www.w3.org/2000/svg" xmlns:xlink="http://www.w3.org/1999/xlink" width="44" height="44" viewBox="0 0 44 44">
  <defs>
    <clipPath id="clip-path">
      <rect id="Rectangle_1227" data-name="Rectangle 1227" width="44" height="44" transform="translate(880 62)" fill="#c8102e" stroke="#707070" stroke-width="1"/>
    </clipPath>
  </defs>
  <g id="Mask_Group_78" data-name="Mask Group 78" transform="translate(-880 -62)" clip-path="url(#clip-path)">
    <g id="download_1_" data-name="download (1)" transform="translate(880.577 62)">
      <g id="XMLID_7_" transform="translate(0)">
        <path id="XMLID_8_" d="M37.638,18.464c.053-6.2-5.231-11.89-11.778-12.677-.13-.015-.272-.039-.422-.064a6.122,6.122,0,0,0-1-.109,1.676,1.676,0,0,0-1.795,1.5,1.738,1.738,0,0,0,.26,1.365,2.578,2.578,0,0,0,1.854.8c.184.025.358.049.5.082,5.882,1.314,7.863,3.381,8.831,9.213.024.143.034.318.046.5.042.7.13,2.148,1.69,2.148h0a2.77,2.77,0,0,0,.415-.033c1.452-.221,1.407-1.547,1.385-2.184a3.234,3.234,0,0,1,0-.462A.622.622,0,0,0,37.638,18.464Z" transform="translate(-0.576 0)" fill="#c8102e"/>
        <path id="XMLID_9_" d="M24.06,3.51c.174.013.339.025.476.046,9.659,1.485,14.1,6.062,15.333,15.8a5.689,5.689,0,0,1,.028.581c.012.761.038,2.343,1.737,2.376h.053a1.667,1.667,0,0,0,1.26-.478,2.661,2.661,0,0,0,.462-2.036c-.007-.162-.014-.315-.012-.448C43.519,9.392,34.9.363,24.953.027a.689.689,0,0,0-.12.006.832.832,0,0,1-.118.006c-.1,0-.221-.009-.351-.017C24.208.012,24.031,0,23.851,0a1.748,1.748,0,0,0-1.924,1.8C21.838,3.348,23.339,3.458,24.06,3.51Z" transform="translate(-0.576)" fill="#c8102e"/>
        <path id="XMLID_10_" d="M39.4,31.934c-.205-.157-.418-.319-.617-.479-1.055-.849-2.177-1.631-3.262-2.388L34.85,28.6a6.733,6.733,0,0,0-3.82-1.451,4.951,4.951,0,0,0-4.121,2.611,2.19,2.19,0,0,1-1.88,1.142,3.733,3.733,0,0,1-1.513-.38,18.222,18.222,0,0,1-9.522-9.271c-.886-1.99-.6-3.291.96-4.35.885-.6,2.532-1.719,2.416-3.861-.132-2.432-5.5-9.749-7.759-10.58a4.4,4.4,0,0,0-2.995-.008A8.668,8.668,0,0,0,1.222,6.885a8.247,8.247,0,0,0,.117,6.657A53.705,53.705,0,0,0,13.124,31.482,57.125,57.125,0,0,0,31,43.354a9.9,9.9,0,0,0,1.768.525c.164.037.306.068.409.1a.686.686,0,0,0,.174.024h.055c3.278,0,7.214-3,8.422-6.41C42.89,34.6,40.957,33.122,39.4,31.934Z" transform="translate(-0.576 0)" fill="#c8102e"/>
        <path id="XMLID_11_" d="M25.51,11.419a2.034,2.034,0,0,0-2.139,1.233,1.651,1.651,0,0,0,.068,1.435,2.147,2.147,0,0,0,1.621.857,3.829,3.829,0,0,1,3.554,3.826,1.811,1.811,0,0,0,1.724,1.788h0a1.7,1.7,0,0,0,.2-.012c1.095-.13,1.625-.934,1.577-2.39a6.825,6.825,0,0,0-2.13-4.617A6.355,6.355,0,0,0,25.51,11.419Z" transform="translate(-0.576 0)" fill="#c8102e"/>
      </g>
    </g>
  </g>
</svg>
