<svg xmlns="http://www.w3.org/2000/svg" xmlns:xlink="http://www.w3.org/1999/xlink" width="14" height="14" viewBox="0 0 14 14">
  <defs>
    <clipPath id="clip-path">
      <rect id="Rectangle_16" data-name="Rectangle 16" width="14" height="14" transform="translate(118 252)" fill="#fff" stroke="#707070" stroke-width="1"/>
    </clipPath>
  </defs>
  <g id="Mask_Group_109" data-name="Mask Group 109" transform="translate(-118 -252)" clip-path="url(#clip-path)">
    <g id="download_4_" data-name="download (4)" transform="translate(118.001 252.002)">
      <g id="Page-1">
        <g id="_015---Barbeque" data-name="015---Barbeque" transform="translate(0 -0.25)">
          <path id="Shape" d="M1.247,9.093l1.38-1.986a.25.25,0,0,1,.41.285L1.727,9.278c.259.088.547.17.855.245l.746-1.491a.25.25,0,0,1,.447.223l-.69,1.381c.332.067.679.125,1.037.173l.213-.7a.25.25,0,1,1,.478.146l-.186.609q.56.061,1.152.093L5.8,9.744A.25.25,0,0,1,6.3,9.8l-.02.187c.236.008.475.013.719.013.26,0,.494,0,.719-.013l-.057-.506a.25.25,0,0,1,.5-.056l.061.539q.592-.031,1.153-.093l-.225-.737a.25.25,0,0,1,.478-.145l.25.822q.538-.073,1.036-.175l-.758-1.517a.25.25,0,1,1,.447-.223l.818,1.631c.309-.075.6-.157.856-.245l-1.31-1.887a.25.25,0,0,1,.41-.285l1.38,1.986A3.9,3.9,0,0,0,13.49,8.7L11.458,6.484c-.38-.1-.793-.175-1.228-.252A3.142,3.142,0,0,1,7.843,8.955a.25.25,0,0,1-.2-.45,1.956,1.956,0,0,0,.819-1.075A1.459,1.459,0,0,0,8.44,6.5,1.129,1.129,0,0,1,7.1,6.858.25.25,0,0,1,7,6.467a1.386,1.386,0,0,1,.112-.113.989.989,0,0,0,.341-.938,1.709,1.709,0,0,0-.352-.86,1.814,1.814,0,0,1-.543,1.152l-.214.225c-.134.141-.269.282-.4.427a1.334,1.334,0,0,0-.358.995A1.606,1.606,0,0,0,6.15,8.442a.614.614,0,0,1,.161.19.25.25,0,0,1-.283.358c-.037-.009-.075-.018-.112-.025a2.055,2.055,0,0,1-.286-.079A2.754,2.754,0,0,1,3.8,6.745a2.37,2.37,0,0,1-.047-.511c-.432.078-.841.156-1.211.25L.509,8.7a3.867,3.867,0,0,0,.738.392Z"/>
          <path id="Shape-2" data-name="Shape" d="M1.606,6.763C.6,7.124,0,7.574,0,8a.609.609,0,0,0,.142.361Z"/>
          <path id="Shape-3" data-name="Shape" d="M11.338,10.057c-.5.114-1.044.207-1.608.277-.541.068-1.112.115-1.7.14a.24.24,0,0,1-.042,0l-.13,0c-.262.012-.545.017-.86.017-.343,0-.682-.008-1.009-.023-.593-.025-1.173-.073-1.722-.142s-1.1-.163-1.607-.277h0a9.95,9.95,0,0,1-1.414-.423A4.218,4.218,0,0,1,.093,9.009,6.822,6.822,0,0,0,7,14.248a6.822,6.822,0,0,0,6.906-5.239,4.218,4.218,0,0,1-1.156.626A9.929,9.929,0,0,1,11.338,10.057ZM2,11.748a.25.25,0,1,1,.25-.25A.25.25,0,0,1,2,11.748Zm5,2a6.96,6.96,0,0,1-4.423-1.539.25.25,0,0,1,.318-.385A6.458,6.458,0,0,0,7,13.248a.25.25,0,1,1,0,.5Z"/>
          <path id="Shape-4" data-name="Shape" d="M14,8c0-.425-.6-.875-1.606-1.236l1.464,1.6A.608.608,0,0,0,14,8Z"/>
          <path id="Shape-5" data-name="Shape" d="M5.319,8.182a2.012,2.012,0,0,1-.227-.793,1.823,1.823,0,0,1,.485-1.362c.133-.148.271-.293.41-.438L6.2,5.365a1.25,1.25,0,0,0,.4-1.054c-.009-.074-.023-.147-.037-.224L6.54,3.966a.25.25,0,0,1,.345-.271,2.271,2.271,0,0,1,1.07,1.683,1.579,1.579,0,0,1-.228,1.036.784.784,0,0,0,.447-.435.25.25,0,0,1,.34-.122c.49.245.617,1.085.429,1.716a2.314,2.314,0,0,1-.137.353A2.643,2.643,0,0,0,9.7,5.4a4.082,4.082,0,0,0-.778-1.662c-.3-.4-.642-.795-.968-1.175l-.258-.3A2.15,2.15,0,0,1,7.17,1.256,1.011,1.011,0,0,1,7.517.269,1.521,1.521,0,0,0,6.445.488,1.757,1.757,0,0,0,6,2.794.25.25,0,0,1,5.7,3.14a1.532,1.532,0,0,0-.887-.025l.023.017a1,1,0,0,1,.247,1.289,6.212,6.212,0,0,1-.393.619l-.055.08a1.913,1.913,0,0,0-.35,1.527A2.221,2.221,0,0,0,5.319,8.182Z"/>
        </g>
      </g>
    </g>
  </g>
</svg>
